<svg width="42" height="42" viewBox="0 0 42 42" fill="none" xmlns="http://www.w3.org/2000/svg">
<path d="M7.54462 34.3C9.63167 32.8741 11.7479 31.7463 13.8933 30.9167C16.0386 30.0871 18.4076 29.6722 21.0002 29.6722C23.5928 29.6722 25.9618 30.0871 28.1071 30.9167C30.2525 31.7463 32.3687 32.8741 34.4558 34.3C36.1021 32.6018 37.421 30.6303 38.4127 28.3855C39.4044 26.1407 39.9002 23.6789 39.9002 21C39.9002 15.75 38.0627 11.2875 34.3877 7.6125C30.7127 3.9375 26.2502 2.1 21.0002 2.1C15.7502 2.1 11.2877 3.9375 7.6127 7.6125C3.9377 11.2875 2.1002 15.75 2.1002 21C2.1002 23.6789 2.59603 26.1407 3.5877 28.3855C4.57936 30.6303 5.89834 32.6018 7.54462 34.3ZM20.9904 21.7C19.1303 21.7 17.565 21.0616 16.2946 19.7847C15.0243 18.5078 14.3891 16.9393 14.3891 15.0791C14.3891 13.219 15.0275 11.6537 16.3044 10.3833C17.5813 9.11295 19.1498 8.47776 21.01 8.47776C22.8701 8.47776 24.4354 9.1162 25.7058 10.3931C26.9761 11.67 27.6113 13.2385 27.6113 15.0987C27.6113 16.9588 26.9729 18.5241 25.696 19.7944C24.4191 21.0648 22.8506 21.7 20.9904 21.7ZM21.0184 41.3C18.1674 41.3 15.5109 40.775 13.0489 39.725C10.5869 38.675 8.43827 37.2296 6.60306 35.3889C4.76782 33.5481 3.3252 31.4026 2.2752 28.9522C1.2252 26.5017 0.700195 23.8541 0.700195 21.0091C0.700195 18.1641 1.2252 15.5134 2.2752 13.0569C3.3252 10.6005 4.77056 8.45186 6.61129 6.61109C8.45205 4.77036 10.5976 3.325 13.048 2.275C15.4984 1.225 18.1461 0.699999 20.9911 0.699999C23.8361 0.699999 26.4868 1.225 28.9433 2.275C31.3997 3.325 33.5483 4.77036 35.3891 6.61109C37.2298 8.45186 38.6752 10.6009 39.7252 13.0582C40.7752 15.5155 41.3002 18.1567 41.3002 20.9818C41.3002 23.8328 40.7752 26.4893 39.7252 28.9513C38.6752 31.4133 37.2298 33.5619 35.3891 35.3971C33.5483 37.2324 31.3993 38.675 28.942 39.725C26.4847 40.775 23.8435 41.3 21.0184 41.3ZM21.0002 39.9C23.2039 39.9 25.4044 39.5014 27.6016 38.7042C29.7988 37.9069 31.7076 36.7759 33.328 35.3111C31.7076 34.0148 29.8507 32.9843 27.7571 32.2194C25.6636 31.4546 23.4113 31.0722 21.0002 31.0722C18.5891 31.0722 16.3271 31.4449 14.2141 32.1903C12.1011 32.9356 10.2668 33.9759 8.71129 35.3111C10.3057 36.7759 12.2016 37.9069 14.3988 38.7042C16.596 39.5014 18.7965 39.9 21.0002 39.9ZM21.0056 20.3C22.4798 20.3 23.7159 19.7991 24.7141 18.7973C25.7122 17.7956 26.2113 16.5576 26.2113 15.0835C26.2113 13.6093 25.7104 12.3732 24.7087 11.375C23.7069 10.3768 22.4689 9.87776 20.9948 9.87776C19.5206 9.87776 18.2844 10.3786 17.2863 11.3804C16.2882 12.3822 15.7891 13.6202 15.7891 15.0943C15.7891 16.5685 16.29 17.8046 17.2917 18.8028C18.2935 19.8009 19.5315 20.3 21.0056 20.3Z" fill="#1D1C20"/>
</svg>
